<svg id="visual" viewBox="0 0 900 750" width="900" height="750" xmlns="http://www.w3.org/2000/svg" xmlns:xlink="http://www.w3.org/1999/xlink" version="1.1"><path d="M0 413L15 418.5C30 424 60 435 90 434.2C120 433.3 150 420.7 180 421C210 421.3 240 434.7 270 434.8C300 435 330 422 360 416.3C390 410.7 420 412.3 450 415C480 417.7 510 421.3 540 429C570 436.7 600 448.3 630 448.7C660 449 690 438 720 430.2C750 422.3 780 417.7 810 420.8C840 424 870 435 885 440.5L900 446L900 601L885 601C870 601 840 601 810 601C780 601 750 601 720 601C690 601 660 601 630 601C600 601 570 601 540 601C510 601 480 601 450 601C420 601 390 601 360 601C330 601 300 601 270 601C240 601 210 601 180 601C150 601 120 601 90 601C60 601 30 601 15 601L0 601Z" fill="#f7770f"></path><path d="M0 448L15 447.5C30 447 60 446 90 448.3C120 450.7 150 456.3 180 456.3C210 456.3 240 450.7 270 450.2C300 449.7 330 454.3 360 459.2C390 464 420 469 450 470.7C480 472.3 510 470.7 540 463C570 455.3 600 441.7 630 443.2C660 444.7 690 461.3 720 462.5C750 463.7 780 449.3 810 448.7C840 448 870 461 885 467.5L900 474L900 601L885 601C870 601 840 601 810 601C780 601 750 601 720 601C690 601 660 601 630 601C600 601 570 601 540 601C510 601 480 601 450 601C420 601 390 601 360 601C330 601 300 601 270 601C240 601 210 601 180 601C150 601 120 601 90 601C60 601 30 601 15 601L0 601Z" fill="#ff5d31"></path><path d="M0 492L15 486C30 480 60 468 90 464.3C120 460.7 150 465.3 180 470.5C210 475.7 240 481.3 270 483.2C300 485 330 483 360 478.3C390 473.7 420 466.3 450 467.5C480 468.7 510 478.3 540 477.8C570 477.3 600 466.7 630 463.8C660 461 690 466 720 470.3C750 474.7 780 478.3 810 482.3C840 486.3 870 490.7 885 492.8L900 495L900 601L885 601C870 601 840 601 810 601C780 601 750 601 720 601C690 601 660 601 630 601C600 601 570 601 540 601C510 601 480 601 450 601C420 601 390 601 360 601C330 601 300 601 270 601C240 601 210 601 180 601C150 601 120 601 90 601C60 601 30 601 15 601L0 601Z" fill="#ff3f4c"></path><path d="M0 474L15 474.5C30 475 60 476 90 476.7C120 477.3 150 477.7 180 477.8C210 478 240 478 270 477.7C300 477.3 330 476.7 360 476C390 475.3 420 474.7 450 479.2C480 483.7 510 493.3 540 495.2C570 497 600 491 630 488C660 485 690 485 720 485.7C750 486.3 780 487.7 810 487.2C840 486.7 870 484.3 885 483.2L900 482L900 601L885 601C870 601 840 601 810 601C780 601 750 601 720 601C690 601 660 601 630 601C600 601 570 601 540 601C510 601 480 601 450 601C420 601 390 601 360 601C330 601 300 601 270 601C240 601 210 601 180 601C150 601 120 601 90 601C60 601 30 601 15 601L0 601Z" fill="#ff1c66"></path><path d="M0 495L15 497.3C30 499.7 60 504.3 90 505.8C120 507.3 150 505.7 180 503.5C210 501.3 240 498.7 270 501.8C300 505 330 514 360 516C390 518 420 513 450 513.3C480 513.7 510 519.3 540 518.5C570 517.7 600 510.3 630 511C660 511.7 690 520.3 720 519.7C750 519 780 509 810 507.3C840 505.7 870 512.3 885 515.7L900 519L900 601L885 601C870 601 840 601 810 601C780 601 750 601 720 601C690 601 660 601 630 601C600 601 570 601 540 601C510 601 480 601 450 601C420 601 390 601 360 601C330 601 300 601 270 601C240 601 210 601 180 601C150 601 120 601 90 601C60 601 30 601 15 601L0 601Z" fill="#fc0082"></path><path d="M0 531L15 530.5C30 530 60 529 90 528C120 527 150 526 180 526C210 526 240 527 270 528.3C300 529.7 330 531.3 360 530.5C390 529.7 420 526.3 450 524.8C480 523.3 510 523.7 540 525.8C570 528 600 532 630 531.3C660 530.7 690 525.3 720 523C750 520.7 780 521.3 810 521.8C840 522.3 870 522.7 885 522.8L900 523L900 601L885 601C870 601 840 601 810 601C780 601 750 601 720 601C690 601 660 601 630 601C600 601 570 601 540 601C510 601 480 601 450 601C420 601 390 601 360 601C330 601 300 601 270 601C240 601 210 601 180 601C150 601 120 601 90 601C60 601 30 601 15 601L0 601Z" fill="#eb00a7"></path><path d="M0 563L15 560.8C30 558.7 60 554.3 90 553.7C120 553 150 556 180 557.7C210 559.3 240 559.7 270 560.2C300 560.7 330 561.3 360 561.5C390 561.7 420 561.3 450 560.3C480 559.3 510 557.7 540 556.3C570 555 600 554 630 554.8C660 555.7 690 558.3 720 559.3C750 560.3 780 559.7 810 557.8C840 556 870 553 885 551.5L900 550L900 601L885 601C870 601 840 601 810 601C780 601 750 601 720 601C690 601 660 601 630 601C600 601 570 601 540 601C510 601 480 601 450 601C420 601 390 601 360 601C330 601 300 601 270 601C240 601 210 601 180 601C150 601 120 601 90 601C60 601 30 601 15 601L0 601Z" fill="#c200d2"></path><path d="M0 562L15 562.5C30 563 60 564 90 566C120 568 150 571 180 572.3C210 573.7 240 573.3 270 574.3C300 575.3 330 577.7 360 576.3C390 575 420 570 450 568.2C480 566.3 510 567.7 540 567.7C570 567.7 600 566.3 630 565.8C660 565.3 690 565.7 720 567.7C750 569.7 780 573.3 810 573C840 572.7 870 568.3 885 566.2L900 564L900 601L885 601C870 601 840 601 810 601C780 601 750 601 720 601C690 601 660 601 630 601C600 601 570 601 540 601C510 601 480 601 450 601C420 601 390 601 360 601C330 601 300 601 270 601C240 601 210 601 180 601C150 601 120 601 90 601C60 601 30 601 15 601L0 601Z" fill="#6600ff"></path></svg>